<svg version="1.2" xmlns="http://www.w3.org/2000/svg" viewBox="0 0 488 86" width="488" height="86">
	<title>RankXperte -  Logotipo-02-svg</title>
	<style>
		.s0 { fill: #fff } 
		.s1 { fill: #4ee303 } 
	</style>
	<g>
		<path fill-rule="evenodd" class="s0" d="m90.2 69.9h-7.2l-20.3-19.4h-5v19.4h-5.5v-53.4h16.2c12.9 0 19.4 5.4 19.4 16.3 0 10.9-5.9 17.2-17.8 17.7 0 0 20.2 19.4 20.2 19.4zm-32.5-48.5v24.1h10.7c9.5 0 13.9-3.9 13.9-12.7 0-8-4.5-11.4-14-11.4z"/>
		<path fill-rule="evenodd" class="s0" d="m129.2 69.9h-5.1v-7.7c-2.4 5.9-6.9 8.9-13.5 8.9-9.4 0-14.1-4.1-14.1-12.2 0-8.1 5.3-12.4 15.4-12.4 4.8 0 8.8 0.7 12.2 2v-4.6c0-7.2-3.6-10.8-10.8-10.8-6.1 0-9.5 2.2-10 6.7h-5q0.7-11.3 15-11.3c10.6 0 15.9 5.1 15.9 15.4zm-5.1-14.7v-2.2c-3.4-1.3-7.3-2-11.8-2-7.1 0-10.5 2.6-10.5 7.9 0 5.4 3.3 7.7 9.9 7.7 7.4 0 12.1-4.6 12.4-11.4z"/>
		<path class="s0" d="m174.9 44.2v25.7h-5.3v-25.7c0-7.5-3.5-11.3-10.4-11.3-8 0-11.6 5.5-11.8 16.4v20.6h-5.4v-40.3h5.4v8.3c2.3-6.3 6.8-9.4 13.5-9.4 9.5 0 14 5 14 15.7z"/>
		<path class="s0" d="m214 69.9l-11.8-18.8h-9.2v18.8h-5.3v-58.6h5.3v35.2h9.4l10.9-16.9h5.8l-12.5 19.3 13.4 21c0 0-6 0-6 0z"/>
	</g>
	<g>
		<path fill-rule="evenodd" class="s0" d="m327.4 50.8c0 14.2-6 21.3-17.9 21.3-8.4 0-13.9-3.5-16.4-10.4v26.2h-5.3v-57.3h5.3v8.8c2.5-6.6 7.9-9.9 16.4-9.9 11.9 0 17.9 7.1 17.9 21.3zm-5.3 0c0-11.7-4.2-16.8-13.6-16.8-10.4 0-15.6 5.3-15.6 14.8v3.6c0 9.3 5.8 15.1 15.5 15.1 9.6 0 13.7-5.2 13.7-16.6z"/>
		<path fill-rule="evenodd" class="s0" d="m374.6 51.9h0.1zm-33.1 0c0.3 10.8 4.7 15.5 14.6 15.5 7.5 0 11.8-2.6 12.8-7.8h5c-0.9 8-7.4 12.5-17.9 12.5-13.2 0-19.8-7.1-19.8-21.3 0-14.2 6.4-21.3 19.3-21.3 12.9 0 19.1 6.4 19.1 20.4v2zm0.1-4.6h27.6c-0.1-9-4.5-13.2-13.7-13.2-9.2 0-13 3.9-13.9 13.2z"/>
		<path class="s0" d="m391.3 41.4c2.3-7.9 6.9-11.8 13.8-11.9v5.4c-9.2 0.2-13.2 5.2-13.9 17.5v18.5h-5.3v-40.2h5.3v10.7z"/>
		<path class="s0" d="m436.4 35.2h-12.1v24.3c0 5.3 2.3 7.9 6.8 7.9 1.8 0 3.5-0.4 5.3-1.3v4.6q-2.2 1.4-5.8 1.4c-7.7 0-11.6-4.2-11.6-12.6v-24.3h-5.8v-4.6h5.8v-10.8h5.3v10.8h12.1z"/>
	</g>
	<path class="s1" d="m29.1 83.7h-25.4l14.2-41.2-13-40.4h25l13.4 40.6z"/>
	<path class="s1" d="m458.9 2.1h25.4l-14.2 41.1 13 40.5h-25l-13.4-40.6z"/>
	<path class="s1" d="m264.3 69.9l-7.2-20.8h-3.4l-7.1 20.8h-16.8l9.4-27.2-8.6-26.8h16.6l6.2 19h4.1l6.2-19h16.7l-8.7 26.8 9.4 27.2c0 0-16.8 0-16.8 0z"/>
</svg>